<?xml version="1.0" encoding="UTF-8"?>
<svg id="Layer_2" data-name="Layer 2" xmlns="http://www.w3.org/2000/svg" xmlns:xlink="http://www.w3.org/1999/xlink" viewBox="0 0 607.47 135.58">
  <defs>
    <style>
      .cls-1 {
        fill: url(#linear-gradient);
      }

      .cls-1, .cls-2, .cls-3, .cls-4 {
        stroke-width: 0px;
      }

      .cls-2 {
        fill: url(#linear-gradient-2);
      }

      .cls-3 {
        fill: url(#linear-gradient-3);
      }

      .cls-4 {
        fill: #fff;
      }
    </style>
    <linearGradient id="linear-gradient" x1="314.72" y1="-10.32" x2="449.6" y2="137.07" gradientUnits="userSpaceOnUse">
      <stop offset="0" stop-color="#0ccc8b"/>
      <stop offset=".99" stop-color="#28a6ff"/>
      <stop offset="1" stop-color="#272525"/>
    </linearGradient>
    <linearGradient id="linear-gradient-2" x1="346.29" y1="-39.22" x2="481.18" y2="108.18" xlink:href="#linear-gradient"/>
    <linearGradient id="linear-gradient-3" x1="327.46" y1="-21.98" x2="462.35" y2="125.41" xlink:href="#linear-gradient"/>
  </defs>
  <g id="Layer_1-2" data-name="Layer 1">
    <path class="cls-4" d="M59.39,32.13v17.54h-18.73v53.01h-22.12v-53.01H0v-17.54h59.39Z"/>
    <path class="cls-4" d="M124.85,46.48v56.2h-22.12v-8.57c-1.73,2.66-4.04,4.82-6.93,6.48-2.89,1.66-6.33,2.49-10.31,2.49-6.44,0-11.48-2.16-15.1-6.48-3.62-4.32-5.43-10.16-5.43-17.54v-32.58h22.02v29.79c0,2.66.71,4.77,2.14,6.33,1.43,1.56,3.34,2.34,5.73,2.34s4.38-.78,5.78-2.34c1.39-1.56,2.09-3.67,2.09-6.33v-29.79h22.12Z"/>
    <path class="cls-4" d="M165.2,49.02c3.25-1.96,6.64-2.94,10.16-2.94v23.62h-6.28c-4.19,0-7.26.73-9.22,2.19-1.96,1.46-2.94,4.05-2.94,7.77v23.02h-22.12v-56.2h22.12v10.36c2.26-3.25,5.01-5.86,8.27-7.82Z"/>
    <path class="cls-4" d="M273.06,52.56c3.95,4.32,5.93,10.16,5.93,17.54v32.58h-22.02v-29.79c0-2.39-.71-4.27-2.14-5.63-1.43-1.36-3.34-2.04-5.73-2.04s-4.38.68-5.78,2.04c-1.4,1.36-2.09,3.24-2.09,5.63v29.79h-22.02v-29.79c0-2.39-.71-4.27-2.14-5.63-1.43-1.36-3.34-2.04-5.73-2.04s-4.38.68-5.78,2.04c-1.39,1.36-2.09,3.24-2.09,5.63v29.79h-22.12v-56.2h22.12v7.57c1.59-2.39,3.77-4.32,6.53-5.78,2.76-1.46,5.99-2.19,9.71-2.19,4.05,0,7.64.88,10.76,2.64,3.12,1.76,5.61,4.23,7.47,7.42,2.06-2.92,4.68-5.33,7.87-7.22s6.71-2.84,10.56-2.84c7.17,0,12.74,2.16,16.69,6.48Z"/>
    <path class="cls-4" d="M288.61,59.18c2.03-4.35,4.8-7.67,8.32-9.96,3.52-2.29,7.47-3.44,11.86-3.44,3.65,0,6.81.75,9.47,2.24,2.66,1.49,4.68,3.54,6.08,6.13v-7.67h22.02v56.2h-22.02v-7.67c-1.39,2.59-3.42,4.63-6.08,6.13-2.66,1.49-5.81,2.24-9.47,2.24-4.38,0-8.34-1.15-11.86-3.44-3.52-2.29-6.29-5.61-8.32-9.96-2.03-4.35-3.04-9.48-3.04-15.39s1.01-11.04,3.04-15.39ZM322.04,67.6c-1.53-1.66-3.49-2.49-5.88-2.49s-4.35.83-5.88,2.49c-1.53,1.66-2.29,3.99-2.29,6.98s.76,5.31,2.29,6.97c1.53,1.66,3.49,2.49,5.88,2.49s4.35-.83,5.88-2.49c1.53-1.66,2.29-3.99,2.29-6.97s-.76-5.31-2.29-6.98Z"/>
    <path class="cls-4" d="M492.41,32.13v17.54h-18.73v53.01h-22.12v-53.01h-18.53v-17.54h59.39Z"/>
    <path class="cls-4" d="M544.49,78.46h-35.57c.33,4.85,2.36,7.27,6.08,7.27,2.39,0,4.12-1.1,5.18-3.29h23.42c-.8,3.99-2.48,7.56-5.03,10.71-2.56,3.16-5.78,5.65-9.67,7.47-3.89,1.83-8.16,2.74-12.8,2.74-5.58,0-10.55-1.16-14.9-3.49-4.35-2.32-7.74-5.66-10.16-10.01-2.43-4.35-3.64-9.45-3.64-15.29s1.21-10.94,3.64-15.29c2.42-4.35,5.81-7.69,10.16-10.01,4.35-2.32,9.32-3.49,14.9-3.49s10.54,1.15,14.9,3.44c4.35,2.29,7.74,5.56,10.16,9.81,2.42,4.25,3.64,9.27,3.64,15.05,0,1.53-.1,2.99-.3,4.38ZM522.37,68.8c0-1.86-.6-3.27-1.79-4.23-1.2-.96-2.69-1.44-4.48-1.44-3.92,0-6.21,1.89-6.88,5.68h13.15Z"/>
    <path class="cls-4" d="M554.41,59.28c2.42-4.35,5.81-7.69,10.16-10.01,4.35-2.32,9.32-3.49,14.9-3.49,7.31,0,13.47,2.06,18.48,6.18,5.01,4.12,8.19,9.83,9.52,17.14h-23.42c-.86-2.92-2.56-4.38-5.08-4.38-1.79,0-3.21.83-4.24,2.49-1.03,1.66-1.54,4.12-1.54,7.37s.51,5.71,1.54,7.37c1.03,1.66,2.44,2.49,4.24,2.49,2.52,0,4.22-1.46,5.08-4.38h23.42c-1.33,7.31-4.5,13.02-9.52,17.14-5.02,4.12-11.18,6.18-18.48,6.18-5.58,0-10.55-1.16-14.9-3.49-4.35-2.32-7.74-5.66-10.16-10.01-2.43-4.35-3.64-9.45-3.64-15.29s1.21-10.94,3.64-15.29Z"/>
    <g>
      <path class="cls-1" d="M396.76,22.82c30.91-.22,56.23,25.47,56.19,56.45-.04,30.97-25.47,56.43-56.63,56.3-30.66-.12-56.28-25.35-56.08-56.85.2-30.72,25.56-56.26,56.53-55.9ZM402.06,124.1c4.83-.22,9.29-1.61,13.45-3.65,15.15-7.43,23.94-19.54,26.17-36.34.2-1.48-.15-2.22-1.77-2.14-.78.04-1.84.32-2.27-.5-.73-1.37-.54-2.95-.17-4.39.31-1.19,1.54-.94,2.45-.93,1.41.02,1.92-.5,1.75-1.98-.58-5.21-1.93-10.16-4.31-14.84-7.43-14.55-19.2-23-35.4-25.26-1.51-.21-2.47.16-2.3,1.88.25,2.44-1.24,2.56-3.08,2.57-1.88.01-3.29-.21-3.04-2.61.16-1.55-.66-2.03-2.13-1.87-7.84.86-15.05,3.54-21.33,8.23-10.6,7.91-17,18.42-18.52,31.72-.17,1.52.17,2.2,1.76,2.15.8-.03,1.83-.22,2.25.61.7,1.39.56,2.96.16,4.39-.34,1.22-1.6.83-2.49.81-1.66-.04-1.92.75-1.72,2.19.43,3.11.94,6.18,2.03,9.16,6.44,17.67,18.8,28.07,37.51,30.84,1.96.29,2.66-.19,2.51-2.13-.18-2.33,1.51-2.14,3.05-2.15,1.56-.01,3.19-.11,3.01,2.19-.15,1.98.63,2.69,2.44,2.04Z"/>
      <path class="cls-2" d="M350.89,38.83c0,1.28.02,2.44-.01,3.59-.01.41-.15.87-.64.92-.62.06-.85-.44-.86-.93-.04-1.69-.02-3.38-.51-5.07,0,.93.02,1.86,0,2.8-.01.42-.14.89-.62.94-.61.07-.81-.44-.86-.93-.07-.68-.08-1.36-.09-2.04-.03-2.16.13-4.29-1-6.36-.73-1.34-.41-2.98.72-4.2.82-.87,1.03-1.86,1.02-2.99-.03-4.09-.08-8.19.02-12.28.04-1.83-.52-2.62-2.44-2.52-2.31.12-4.64.07-6.96,0-2.69-.07-4.14-1.35-4.11-3.53.03-2.21,1.43-3.4,4.18-3.4,16.99-.01,33.97-.02,50.96,0,1.62,0,2.94-.17,4.17-1.55,1.59-1.78,4-1.72,5.6.08,1.1,1.24,2.29,1.47,3.78,1.47,16.44-.03,32.88-.02,49.32-.02.68,0,1.36-.01,2.05,0,2.61.06,3.97,1.19,4.04,3.33.07,2.25-1.29,3.57-4,3.59-8.05.05-16.1.02-24.15.03-3.06,0-2.99,0-2.32,2.89,1.18,5.12,1.91,10.32,2.16,15.58.03.59.16,1.33-.44,1.69-.73.44-1.26-.21-1.82-.56-8.99-5.57-18.7-8.67-29.35-9-11.28-.35-21.77,2.18-31.56,7.73-.47.27-.95.54-1.43.8-.79.43-1.45,1.61-2.46.97-.82-.52-.49-1.65-.42-2.5.43-5.3.95-10.6,2.45-15.73.45-1.52.15-1.94-1.39-1.91-3.2.07-6.41.06-9.62,0-1.43-.02-2.14.44-2.13,1.99.05,4.43.04,8.87.01,13.3,0,1.04.43,1.82,1.06,2.58,1.05,1.27,1.42,2.83.66,4.21-1,1.8-.97,3.64-.96,5.55,0,.41.02.82-.04,1.23-.08.59,0,1.35-.76,1.51-.86.17-.57-.93-1.27-1.31Z"/>
      <path class="cls-3" d="M396.49,83.52c-1.85-.03-3.79-1.46-4.12-3.34-.23-1.31-.88-2.22-1.77-3.11-4.6-4.57-9.17-9.16-13.76-13.74q-1.93-1.93-.03-3.83t3.97,0c4.54,4.53,9.06,9.08,13.61,13.6,1.88,1.88,2.51,1.88,4.39,0,7.24-7.23,14.52-14.43,21.68-21.74,1.49-1.53,2.36-1.18,3.6.16,1.14,1.23,2.15,2.03.39,3.75-7.33,7.14-14.5,14.44-21.75,21.67-.93.93-1.66,1.87-1.9,3.26-.37,2.09-2.18,3.34-4.31,3.31Z"/>
    </g>
  </g>
</svg>