<?xml version="1.0" encoding="UTF-8"?>
<svg id="Layer_2" data-name="Layer 2" xmlns="http://www.w3.org/2000/svg" viewBox="0 0 106.85 93.87">
  <defs>
    <style>
      .cls-1 {
        fill: #97cc74;
        stroke-width: 0px;
      }
    </style>
  </defs>
  <g id="Layer_1-2" data-name="Layer 1">
    <g>
      <path class="cls-1" d="M29.37,10.79c9.23,0,18.46,0,27.69,0,1.63,0,3.22-.36,3.19-2.28-.03-1.79-1.42-2.36-3.16-2.34-4.66.06-9.31.02-13.97.02-4.57,0-9.15.06-13.72-.03-1.82-.03-3.46.53-3.5,2.32-.04,1.91,1.77,2.3,3.47,2.3Z"/>
      <path class="cls-1" d="M62.41,12.09c-.02,1.5.54,2.75,2.11,2.79,1.67.05,2.46-1.18,2.47-2.79.03-3.15.06-6.3-.02-9.44-.04-1.4-.51-2.64-2.3-2.64-1.79,0-2.19,1.23-2.25,2.64-.07,1.57-.02,3.15-.01,4.72,0,1.57.02,3.15,0,4.72Z"/>
      <path class="cls-1" d="M21.67,14.91c1.37.05,2.05-.87,2.04-2.27-.02-1.74,0-3.49,0-5.23,0-1.74,0-3.49,0-5.23,0-1.35-.49-2.22-2.05-2.16-1.46.05-2.11.82-2.11,2.2,0,3.49.01,6.98,0,10.47,0,1.46.89,2.18,2.13,2.23Z"/>
      <path class="cls-1" d="M94.87,42.3c-.01-6.79-.03-13.58-.04-20.37,0-1,.05-2.01-.08-2.99-.26-2.01-1.4-3.35-3.36-3.9-1.16-.33-2.16.05-2.82,1.05-.66,1.01-.32,1.95.55,2.62,1.05.8,1.24,1.82,1.24,3.06,0,5.97-.01,11.94-.02,17.91-1.33-.62-2.72-1.13-4.15-1.54,0-8.71,0-17.41,0-26.12,0-4.17-1.69-5.83-5.89-5.83-2.75,0-5.5.05-8.24-.02-1.77-.04-3.08.61-3.06,2.43.02,1.77,1.46,2.2,3.02,2.19,2.58-.02,5.16.04,7.74-.02,1.39-.03,1.93.54,1.9,1.93-.05,2.99-.03,5.99,0,8.99.01,1.38-.59,1.86-1.98,1.86-24.31-.03-48.62-.03-72.93,0-1.63,0-2.23-.61-2.19-2.2.06-2.83.09-5.66,0-8.49-.05-1.7.72-2.15,2.26-2.1,2.5.08,5,.07,7.49,0,1.45-.04,3.04-.36,3.08-2.14.03-1.85-1.38-2.45-3.09-2.44-2.83.01-5.66,0-8.49.01C1.64,6.21,0,7.88,0,12.14,0,31.87,0,51.59,0,71.31c0,4.52,1.59,6.08,6.21,6.08,12.24,0,24.48,0,36.71,0,3.24,0,6.49,0,9.73,0,.68,1.47,1.48,2.88,2.4,4.2-13.16,0-26.32,0-39.48,0-1.11,0-2.08,0-2.79-1.13-.73-1.17-2.02-1.33-3.06-.6-1.03.71-1.25,1.91-.74,3.14.94,2.25,2.73,2.83,5.03,2.82,12.57-.05,25.14-.02,37.71-.02,2.3,0,4.6,0,6.9,0,5.12,4.99,12.11,8.07,19.82,8.07,15.69,0,28.4-12.72,28.4-28.4,0-9.57-4.73-18.02-11.98-23.17ZM50.04,65.47c0,2.57.35,5.05.99,7.42-14.56,0-29.13,0-43.69.04-2.17,0-2.88-.57-2.87-2.8.09-13.14.1-26.29,0-39.43-.02-2.16.48-2.83,2.74-2.8,11.98.12,23.97.06,35.96.06,11.9,0,23.81.05,35.71-.04,2.08-.02,2.88.35,2.86,2.68-.02,2.22-.02,4.45-.03,6.67-1.07-.12-2.15-.19-3.25-.19-15.69,0-28.4,12.72-28.4,28.4ZM95.6,71.15h-11.15v11.2h-12.01v-11.2h-11.15v-12.01h11.15v-11.09h12.01v11.09h11.15v12.01Z"/>
    </g>
  </g>
</svg>